# xmcd
# 
# Track frame offsets:
#     150
#     13989
#     28298
#     46658
#     62437
#     79311
#     93795
# 
# Disc length: 1497
# 
# Revision: 0
# Processed by: cddbd v1.5.2PL0 Copyright (c) Steve Scherf et al.
# Submitted via: BonkEnc v1.0.8
# 
DISCID=4e05d707
DTITLE=Lillian - ティンクル☆クルセイダース FC ARRANGE ALBUM
DYEAR=2008
DGENRE=Game
TTITLE0=Star Crusaders - famicom-mix -
TTITLE1=Meteor Stream - famicom-mix -
TTITLE2=Blazing Strike - famicom-mix -
TTITLE3=Dance Wth Peeress!! - famicom-mix -
TTITLE4=Fatal Beat Clash - famicom-mix -
TTITLE5=Den for all,all for one!! - famicom-mix -
TTITLE6=Chant Of Seraph - famicom-mix -
EXTD=
EXTT0=
EXTT1=
EXTT2=
EXTT3=
EXTT4=
EXTT5=
EXTT6=
PLAYORDER=
